<?xml version="1.0" encoding="UTF-8" standalone="no"?>
<!DOCTYPE svg PUBLIC "-//W3C//DTD SVG 1.1//EN" "http://www.w3.org/Graphics/SVG/1.1/DTD/svg11.dtd">
<svg width="250px" height="250px" version="1.1" xmlns="http://www.w3.org/2000/svg" xmlns:xlink="http://www.w3.org/1999/xlink" xml:space="preserve" xmlns:serif="http://www.serif.com/" style="fill-rule:evenodd;clip-rule:evenodd;stroke-linejoin:round;stroke-miterlimit:2;">
    <g transform="matrix(1,0,0,1,-300,-185.221)">
        <g>
            <g transform="matrix(0.707107,0.707107,-0.707107,0.707107,304.826,-259.033)">
                <g transform="matrix(1,2.22045e-16,-2.22045e-16,1,228.336,7.54767)">
                    <g transform="matrix(1,0,0,1,0,-26.0197)">
                        <g transform="matrix(1.2432,3.33067e-16,-1.66533e-16,0.941928,-364.031,60.168)">
                            <rect x="471.12" y="176.077" width="20.109" height="233.563" style="fill:rgb(255,122,0);"/>
                        </g>
                        <g transform="matrix(1.86902,1.11022e-16,-1.11022e-16,1,59.2096,206.677)">
                            <rect x="86.92" y="113.409" width="13.376" height="31.867" style="fill:rgb(1,42,69);"/>
                        </g>
                    </g>
                    <g transform="matrix(1,0,0,1,0,0.334799)">
                        <g transform="matrix(1.86902,1.11022e-16,-1.11022e-16,1,59.2096,126.591)">
                            <rect x="86.92" y="113.409" width="13.376" height="31.867" style="fill:rgb(1,42,69);"/>
                        </g>
                        <g transform="matrix(1.86902,1.11022e-16,-1.11022e-16,1,59.2096,234.054)">
                            <rect x="86.92" y="113.409" width="13.376" height="31.867" style="fill:rgb(1,42,69);"/>
                        </g>
                    </g>
                </g>
                <g transform="matrix(1,1.11022e-16,-1.11022e-16,1,-126.885,-76.6235)">
                    <g transform="matrix(1.2432,1.11022e-16,1.66533e-16,0.941928,41.1901,118.319)">
                        <rect x="471.12" y="176.077" width="20.109" height="233.563" style="fill:rgb(255,122,0);"/>
                    </g>
                    <g transform="matrix(1.86902,-6.66134e-16,4.44089e-16,1.94303,464.43,142.855)">
                        <rect x="86.92" y="113.409" width="13.376" height="31.867" style="fill:rgb(1,42,69);"/>
                    </g>
                </g>
            </g>
            <g transform="matrix(1,0,0,1,0,-14.7786)">
                <path d="M425,200C493.989,200 550,256.011 550,325C550,393.989 493.989,450 425,450C356.011,450 300,393.989 300,325C300,256.011 356.011,200 425,200ZM425,220C482.951,220 530,267.049 530,325C530,382.951 482.951,430 425,430C367.049,430 320,382.951 320,325C320,267.049 367.049,220 425,220Z" style="fill:rgb(1,42,69);"/>
                <path d="M425,200C493.989,200 550,256.011 550,325C550,393.989 493.989,450 425,450C356.011,450 300,393.989 300,325C300,256.011 356.011,200 425,200ZM425,202C492.886,202 548,257.114 548,325C548,392.886 492.886,448 425,448C357.114,448 302,392.886 302,325C302,257.114 357.114,202 425,202ZM425,218C365.945,218 318,265.945 318,325C318,384.055 365.945,432 425,432C484.055,432 532,384.055 532,325C532,265.945 484.055,218 425,218ZM425,220C482.951,220 530,267.049 530,325C530,382.951 482.951,430 425,430C367.049,430 320,382.951 320,325C320,267.049 367.049,220 425,220Z" style="fill:white;"/>
            </g>
        </g>
    </g>
</svg>
